<svg width="18" height="18" viewBox="0 0 18 18" fill="none" xmlns="http://www.w3.org/2000/svg">
<path opacity="0.32" d="M15.8856 12.7277C15.6728 13.2191 15.1669 13.5 14.6315 13.5H11.1116C11.1346 13.4359 11.1551 13.3702 11.1728 13.303C11.3782 12.5231 11.1618 11.7293 10.666 11.1722C10.8491 9.68183 10.9633 8.15495 11.0331 6.94887C11.0677 6.35048 10.3346 6.15061 10.0706 6.68645C9.53835 7.76645 8.88698 9.14686 8.31311 10.5308C7.61003 10.7609 7.0326 11.3382 6.82721 12.1182C6.70231 12.5924 6.73337 13.0718 6.88839 13.5H3.36855C2.83311 13.5 2.32716 13.2191 2.11438 12.7277C1.71909 11.8149 1.5 10.8081 1.5 9.75C1.5 5.60786 4.85786 2.25 9 2.25C13.1421 2.25 16.5 5.60786 16.5 9.75C16.5 10.8081 16.2809 11.8149 15.8856 12.7277Z" fill="#637381"/>
<path d="M11.0331 6.94887C11.0677 6.35048 10.3346 6.15061 10.0706 6.68645C9.53835 7.76645 8.88698 9.14686 8.31311 10.5308C7.61003 10.7609 7.0326 11.3382 6.82721 12.1182C6.50565 13.3392 7.21781 14.5943 8.41781 14.9214C9.61781 15.2486 10.8513 14.524 11.1728 13.303C11.3782 12.5231 11.1618 11.7293 10.666 11.1722C10.8491 9.68183 10.9633 8.15495 11.0331 6.94887Z" fill="#637381"/>
</svg>
