<svg width="19" height="18" viewBox="0 0 19 18" fill="none" xmlns="http://www.w3.org/2000/svg">
<path opacity="0.32" fill-rule="evenodd" clip-rule="evenodd" d="M1.625 9C1.625 13.3492 5.15076 16.875 9.5 16.875C13.8492 16.875 17.375 13.3492 17.375 9C17.375 4.65076 13.8492 1.125 9.5 1.125C5.15076 1.125 1.625 4.65076 1.625 9ZM10.2118 4.35544C9.91259 3.79819 9.08744 3.79819 8.78823 4.35544L7.66147 6.45401L5.27264 6.9084C4.66199 7.02454 4.41516 7.73925 4.8313 8.18633L6.52521 10.0062L6.21408 12.4416C6.13574 13.0548 6.7957 13.5055 7.36795 13.2296L9.50001 12.2015L11.6321 13.2296C12.2043 13.5055 12.8643 13.0548 12.786 12.4416L12.4748 10.0062L14.1687 8.18633C14.5849 7.73925 14.338 7.02454 13.7274 6.9084L11.3386 6.45401L10.2118 4.35544Z" fill="#637381"/>
<path d="M8.78823 4.35544C9.08744 3.79819 9.91259 3.79819 10.2118 4.35544L11.3386 6.45401L13.7274 6.9084C14.338 7.02454 14.5849 7.73925 14.1687 8.18633L12.4748 10.0062L12.786 12.4416C12.8643 13.0548 12.2043 13.5055 11.6321 13.2296L9.50001 12.2015L7.36795 13.2296C6.7957 13.5055 6.13574 13.0548 6.21408 12.4416L6.52521 10.0062L4.8313 8.18633C4.41516 7.73925 4.66199 7.02454 5.27264 6.9084L7.66146 6.45401L8.78823 4.35544Z" fill="#637381"/>
</svg>
