<svg width="19" height="18" viewBox="0 0 19 18" fill="none" xmlns="http://www.w3.org/2000/svg">
<path opacity="0.32" d="M2.21074 14.7431C2.27724 15.3871 2.69945 15.8968 3.33266 16.0316C4.33212 16.2444 6.2162 16.5 9.5 16.5C12.7838 16.5 14.6679 16.2444 15.6674 16.0316C16.3006 15.8968 16.7228 15.3871 16.7892 14.7431C16.8879 13.7883 17 12.0352 17 9C17 5.96479 16.8879 4.2117 16.7892 3.25688C16.7228 2.61291 16.3006 2.10318 15.6673 1.96838C14.6679 1.75561 12.7838 1.5 9.5 1.5C6.2162 1.5 4.33212 1.75561 3.33266 1.96838C2.69945 2.10318 2.27724 2.61291 2.21074 3.25688C2.11214 4.2117 2 5.96479 2 9C2 12.0352 2.11214 13.7883 2.21074 14.7431Z" fill="#637381"/>
<path d="M10.9536 10.3919C11.9472 9.86869 12.6247 8.82596 12.6247 7.62499C12.6247 5.89912 11.2256 4.5 9.49967 4.5C7.77381 4.5 6.37468 5.89912 6.37468 7.62499C6.37468 8.826 7.05219 9.8688 8.04587 10.392C6.71518 10.899 5.69912 12.0819 5.38438 13.5397C5.34084 13.7414 5.45184 13.9485 5.65506 13.9853C6.38436 14.1173 7.59212 14.25 9.50046 14.25C11.4088 14.25 12.6165 14.1173 13.3458 13.9853C13.5483 13.9487 13.659 13.7424 13.6157 13.5413C13.3013 12.0827 12.2849 10.899 10.9536 10.3919Z" fill="#637381"/>
</svg>
